<?xml version="1.0" encoding="UTF-8"?> <svg xmlns="http://www.w3.org/2000/svg" width="269" height="92" viewBox="0 0 269 92" fill="none"><path d="M266.69 18.3208C264.691 10.1244 256.914 5.25938 245.675 2.8757C196.479 -7.56756 170.881 40.1159 183.802 76.4475C196.723 75.2849 206.084 80.1011 211.106 90.603C228.171 93.0551 234.363 92.381 248.162 87.682C258.84 84.7024 259.327 72.9208 259.815 64.5193C259.815 64.2262 259.864 63.8843 259.717 63.6401C259.473 63.2981 259.035 63.1516 258.645 63.2493C253.769 64.7635 249.478 67.8408 244.554 69.697C230.414 75.1677 199.599 74.2885 206.523 51.6728H251.199C253.13 51.6728 255.056 51.3748 256.865 50.691C269.859 45.7527 268.884 26.9274 266.69 18.3208ZM246.114 35.3094C244.261 35.4169 213.544 35.9053 209.448 35.7979C210.394 31.7485 212.759 27.5917 215.996 24.4314C219.049 21.4518 223.042 19.6396 227.264 19.073C238.459 17.5783 250.707 18.2671 246.114 35.3094Z" fill="white"></path><path d="M152.714 4.32154C151.69 5.08354 150.949 6.16792 150.549 7.38418C145.913 21.4762 139.623 61.3931 139.623 61.3931C139.33 62.7608 138.55 64.0308 137.38 64.8124C131.042 69.2573 119.779 73.0185 114.903 65.9358C114.22 64.91 113.879 63.6889 113.976 62.4678C115.098 44.1505 120.593 23.4985 123.957 5.66969C124.396 3.37393 122.689 1.27355 120.349 1.22471C115.308 1.13678 108.993 1.15632 104.259 2.25536C100.607 3.10527 97.7793 6.00184 97.004 9.67506L86.253 60.6605C85.7264 63.1467 85.3754 65.6721 85.2828 68.212C83.8005 108.007 138.896 87.4036 161.715 80.4919L177.249 4.69277C177.59 2.93431 176.469 1.36147 174.665 1.22471C166.82 0.63367 157.132 1.04886 152.714 4.32154Z" fill="white"></path><path d="M37.1884 4.683C9.24068 12.5325 -11.7933 56.0543 7.41228 79.1975C11.4348 84.0479 15.979 87.8628 22.0298 89.5968C34.6433 93.2114 50.1433 92.4689 61.8694 87.809C64.0586 86.9396 66.0382 85.5816 67.5253 83.7548C72.128 78.0936 73.7321 69.2964 73.4054 62.7608C73.3079 62.077 72.7228 61.7839 72.089 61.6862C71.6502 61.6374 71.1626 61.7839 70.8213 62.077C64.1903 67.9873 53.4637 71.2698 44.346 71.0744C35.4722 70.879 26.9396 65.7013 25.8182 56.9091C22.4539 30.0927 54.6338 5.56223 76.8185 30.6202C77.1598 31.011 77.6961 31.304 78.2324 31.304C82.4743 31.4506 83.8395 26.1361 84.8147 22.2285C85.7898 16.8554 86.0336 13.1333 83.6445 9.07913C82.9131 7.85799 81.8405 6.88107 80.5728 6.29492C68.1981 0.238019 50.1579 0.286864 37.1884 4.683Z" fill="white"></path></svg> 