<svg xmlns="http://www.w3.org/2000/svg" id="Calque_1"  width="300" height="110" viewBox="0 0 155 57"><g id="Home"><g id="Home-"><g id="_x31_440-header-copy"><g id="Page-1"><path id="Fill-1" d="M7.7,40.1L0,56.4h1.8l2.5-5.4h7l2.6,5.4h1.8l-7.6-16.3s-.4,0-.4,0ZM7.9,43.6l2.8,5.9h-5.6s2.8-5.9,2.8-5.9Z" fill-rule="evenodd"></path><g id="Group-22"><path id="Fill-2" d="M18.1,40.1h3.2c1.8,0,3,0,3.7.2,1,.2,1.8.7,2.4,1.4s.9,1.6.9,2.7-.2,1.7-.6,2.3c-.4.7-1,1.2-1.8,1.5s-1.8.5-3.2.5l5.9,7.6h-2l-5.9-7.6h-.9v7.6h-1.6v-16.3h-.1ZM19.7,41.7v5.5h2.8c1.1,0,1.9,0,2.4-.3.5-.2.9-.5,1.2-1,.3-.5.4-1,.4-1.5s-.1-1-.4-1.5c-.3-.4-.7-.8-1.2-1s-1.3-.3-2.4-.3h-2.9.1Z" fill-rule="evenodd"></path><polygon id="Fill-4" points="30.4 41.7 30.4 40.1 39.4 40.1 39.4 41.7 35.7 41.7 35.7 56.4 34.1 56.4 34.1 41.7 30.4 41.7" fill-rule="evenodd"></polygon><polygon id="Fill-6" points="42.4 40.1 44 40.1 44 47 52.3 47 52.3 40.1 53.9 40.1 53.9 56.4 52.3 56.4 52.3 48.6 44 48.6 44 56.4 42.4 56.4 42.4 40.1" fill-rule="evenodd"></polygon><path id="Fill-8" d="M58.3,40.1h1.6v12c0,.6.3,1.2.6,1.6.3.4.7.8,1.4,1.1.6.3,1.2.4,1.9.4s1.1,0,1.6-.3.9-.5,1.2-1c.3-.4.6-.9.7-1.5,0-.4.2-1.3.2-2.5v-9.8h1.6v9.8c0,1.5,0,2.6-.4,3.5s-.9,1.7-1.7,2.3c-.9.7-1.9,1-3.1,1s-2.4-.3-3.4-.9c-.9-.6-1.6-1.5-1.9-2.5-.2-.6-.3-1.8-.3-3.4,0,0,0-9.8,0-9.8Z" fill-rule="evenodd"></path><path id="Fill-10" d="M73.2,40.1h3.2c1.8,0,3,0,3.7.2,1,.2,1.8.7,2.4,1.4s.9,1.6.9,2.7-.2,1.7-.6,2.3c-.4.7-1,1.2-1.8,1.5s-1.8.5-3.2.5l5.9,7.6h-2l-5.9-7.6h-.9v7.6h-1.6v-16.3h0ZM74.8,41.7v5.5h2.8c1.1,0,1.9,0,2.4-.3.5-.2.9-.5,1.2-1,.3-.5.4-1,.4-1.5s0-1-.4-1.5c-.3-.4-.7-.8-1.2-1s-1.3-.3-2.4-.3h-2.9,0Z" fill-rule="evenodd"></path><polygon id="Fill-12" points="92 40.1 93.6 40.1 93.6 47 101.9 47 101.9 40.1 103.5 40.1 103.5 56.4 101.9 56.4 101.9 48.6 93.6 48.6 93.6 56.4 92 56.4 92 40.1" fill-rule="evenodd"></polygon><path id="Fill-14" d="M114.9,39.7c2.5,0,4.5.8,6.2,2.5,1.7,1.6,2.5,3.7,2.5,6.1s-.8,4.4-2.5,6.1c-1.7,1.7-3.7,2.5-6.1,2.5s-4.5-.8-6.1-2.5c-1.7-1.7-2.5-3.7-2.5-6s.4-3,1.1-4.4c.8-1.3,1.8-2.4,3.1-3.1,1.3-.8,2.7-1.1,4.2-1.1M115,41.3c-1.2,0-2.3.3-3.4.9-1.1.6-1.9,1.5-2.5,2.5-.6,1.1-.9,2.2-.9,3.6s.7,3.6,2,4.9c1.3,1.3,3,2,4.9,2s2.4-.3,3.5-.9c1.1-.6,1.9-1.5,2.5-2.5s.9-2.2.9-3.5-.3-2.5-.9-3.5-1.5-1.9-2.5-2.5c-1.1-.6-2.3-.9-3.5-.9" fill-rule="evenodd"></path><polygon id="Fill-16" points="126.6 40.1 128.2 40.1 128.2 54.8 134.5 54.8 134.5 56.4 126.6 56.4 126.6 40.1" fill-rule="evenodd"></polygon><polygon id="Fill-18" points="136.3 56.4 138.6 40.1 138.9 40.1 145.5 53.5 152.1 40.1 152.3 40.1 154.7 56.4 153.1 56.4 151.5 44.8 145.7 56.4 145.3 56.4 139.5 44.7 137.9 56.4 136.3 56.4" fill-rule="evenodd"></polygon><path id="Fill-20" d="M93.6.4v14.9h-13.8V.4h-3.3l-17.8,26.4c-2,3-3.4,5-6.6,5.1v1h8.5v-1c-3.1-.1-2.4-1.6.3-5.6l5.3-7.9h10.3v14.5h3.3v-14.5h13.8v14.5h3.3V.4h-3.3ZM68.3,15.2l8.1-12.1v12.1h-8.1Z" fill="#ab162b" fill-rule="evenodd"></path></g></g></g></g></g></svg>
