<svg width="165" height="39" viewBox="0 0 165 39" fill="none" xmlns="http://www.w3.org/2000/svg">
<path d="M28.5668 30.423L30.5486 25.4686C30.5781 25.3954 30.5415 25.3124 30.4683 25.2842L18.6298 20.7873C17.9036 20.5114 17.9036 19.4839 18.6298 19.2081L30.4698 14.7083C30.5429 14.6801 30.5795 14.5971 30.55 14.5239L28.5682 9.56948C28.5387 9.49769 28.457 9.46251 28.3852 9.49066L17.3743 13.8947C16.0907 14.4085 14.914 12.9573 15.6797 11.8074L21.3815 3.24979C21.4308 3.17519 21.3998 3.07385 21.3168 3.04148L16.2132 1.0006C16.1512 0.975266 16.0809 0.997786 16.0443 1.05268L12.3538 6.58979C12.1736 6.86003 12.1384 7.20065 12.2595 7.50186L17.2575 19.9963L12.2623 32.485C12.1413 32.7862 12.1778 33.1268 12.3566 33.3971L16.0499 38.9384C16.0865 38.9933 16.1569 39.0158 16.2188 38.9905L21.3224 36.9496C21.4054 36.9158 21.4364 36.8159 21.3871 36.7413L15.6839 28.1865C14.9168 27.0366 16.0949 25.5854 17.3772 26.0992L28.3852 30.5019C28.457 30.5314 28.5387 30.4962 28.5682 30.423H28.5668Z" fill="currentcolor"/>
<path d="M0.505554 22.8126H10.3933C10.451 22.8126 10.5016 22.7788 10.5242 22.7254L11.6262 20.0004L10.5354 17.2713C10.5143 17.2178 10.4622 17.1826 10.4045 17.1826H0.506961C0.429549 17.1826 0.366211 17.2445 0.366211 17.3234V22.6719C0.366211 22.7493 0.429549 22.8126 0.506961 22.8126H0.505554Z" fill="currentcolor"/>
<path d="M54.484 3.53711H44.6357V35.9083H54.484C64.6969 35.9083 71.0349 29.7082 71.0349 19.7234C71.0349 9.73857 64.6518 3.53852 54.484 3.53852V3.53711ZM54.5291 31.5309H49.4227V7.91444H54.5291C61.9607 7.91444 66.11 12.1088 66.11 19.7234C66.11 27.338 61.9607 31.5323 54.5291 31.5323V31.5309Z" fill="currentcolor"/>
<path d="M91.9152 16.7128H91.2312C89.7265 14.6607 86.9904 13.4756 84.1191 13.4756C77.8275 13.4756 73.2222 18.354 73.2222 24.965C73.2222 31.5761 77.8275 36.4545 84.1191 36.4545C86.9918 36.4545 89.7265 35.2694 91.2312 33.2172H91.9152V35.907H96.3376V14.0217H91.9152V16.7114V16.7128ZM84.9396 32.2601C80.7903 32.2601 77.8726 29.2058 77.8726 24.965C77.8726 20.7242 80.7903 17.6699 84.9396 17.6699C89.0889 17.6699 91.9602 20.6341 91.9602 24.965C91.9602 29.2959 89.0875 32.2601 84.9396 32.2601Z" fill="currentcolor"/>
<path d="M157.706 24.965C157.706 17.7614 153.147 13.4756 146.809 13.4756C140.471 13.4756 135.365 18.4905 135.365 24.965C135.365 31.4395 140.243 36.4545 146.626 36.4545C151.961 36.4545 156.291 33.3087 157.204 28.7034H152.645C151.779 30.892 149.316 32.2601 146.809 32.2601C143.102 32.2601 140.523 29.8575 140.017 26.2881H157.706V24.9664V24.965ZM146.809 17.5785C150.179 17.5785 152.372 19.511 152.946 22.7299H140.184C140.934 19.6644 143.282 17.5785 146.809 17.5785Z" fill="currentcolor"/>
<path d="M112.113 13.4766C109.331 13.4766 106.778 14.7532 105.457 16.7138H104.772V14.0241H100.35V35.9093H104.955V25.1039C104.955 20.4535 107.189 17.6723 110.974 17.6723C114.256 17.6723 115.807 19.4964 115.807 23.3263V35.9093H120.413V23.0982C120.413 16.8518 117.495 13.478 112.115 13.478L112.113 13.4766Z" fill="currentcolor"/>
<path d="M128.709 6.72754H124.104V29.5235C124.104 34.0824 125.973 35.9065 130.532 35.9065H134.634V31.7121H131.169C129.482 31.7121 128.707 30.9366 128.707 29.2504V18.217H134.634V14.0226H128.707V6.72754H128.709Z" fill="currentcolor"/>
<path d="M157.571 13.1781C157.571 11.3202 158.999 9.8916 160.866 9.8916C162.732 9.8916 164.144 11.3202 164.144 13.1781C164.144 15.036 162.715 16.4463 160.866 16.4463C159.016 16.4463 157.571 15.0262 157.571 13.1781ZM163.484 13.1697C163.484 11.6242 162.394 10.5264 160.857 10.5264C159.32 10.5264 158.231 11.6242 158.231 13.1697C158.231 14.7151 159.32 15.813 160.857 15.813C162.394 15.813 163.484 14.7151 163.484 13.1697ZM159.706 11.5173H161.073C161.769 11.5173 162.189 11.8748 162.189 12.4547C162.189 12.7854 162.019 13.0444 161.733 13.1781V13.3034C162.027 13.447 162.152 13.6609 162.152 14.0001V14.8122H161.527V14.0705C161.527 13.6778 161.357 13.5173 160.947 13.5173H160.322V14.8122H159.706V11.5159V11.5173ZM161.564 12.518C161.564 12.2407 161.377 12.0535 161.099 12.0535H160.322V12.9825H161.099C161.385 12.9825 161.564 12.7953 161.564 12.518Z" fill="currentcolor"/>
</svg>
